<svg id="Layer_1" data-name="Layer 1" xmlns="http://www.w3.org/2000/svg" xmlns:xlink="http://www.w3.org/1999/xlink" viewBox="0 0 162.78 162.78"><defs><style>.cls-1{fill:url(#linear-gradient);}.cls-2{fill:#eab768;}</style><linearGradient id="linear-gradient" x1="-13.08" y1="173.48" x2="172.43" y2="-7.36" gradientUnits="userSpaceOnUse"><stop offset="0.06" stop-color="#755a62"/><stop offset="0.37" stop-color="#a17d64"/><stop offset="0.77" stop-color="#d5a767"/><stop offset="0.97" stop-color="#eab768"/></linearGradient></defs><title>logo-ol</title><rect class="cls-1" width="162.78" height="162.78" rx="33.13"/><polygon class="cls-2" points="142.72 49.69 142.72 112.74 81.3 148.2 47.17 128.5 47.17 65.45 81.3 45.75 115.42 65.45 115.42 96.97 81.3 116.68 74.47 112.74 74.47 81.21 81.3 77.27 88.12 81.21 88.12 96.97 101.77 89.09 101.77 73.33 81.3 61.51 60.82 73.33 60.82 120.62 81.3 132.44 129.07 104.86 129.07 57.57 81.3 29.99 33.52 57.57 33.52 120.62 19.87 112.74 19.87 49.69 81.3 14.23 142.72 49.69"/></svg>