<svg id="Layer_1" data-name="Layer 1" xmlns="http://www.w3.org/2000/svg" viewBox="0 0 162.78 162.78"><defs><style>.cls-1{fill:#f3b337;}.cls-2{fill:#131945;}</style></defs><title>ol_logo</title><rect class="cls-1" width="162.78" height="162.78" rx="20.53"/><polygon class="cls-2" points="142.72 49.69 142.72 112.74 81.3 148.2 47.17 128.5 47.17 65.45 81.3 45.75 115.42 65.45 115.42 96.97 81.3 116.68 74.47 112.74 74.47 81.21 81.3 77.27 88.12 81.21 88.12 96.97 101.77 89.09 101.77 73.33 81.3 61.51 60.82 73.33 60.82 120.62 81.3 132.44 129.07 104.86 129.07 57.57 81.3 29.99 33.52 57.57 33.52 120.62 19.87 112.74 19.87 49.69 81.3 14.23 142.72 49.69"/></svg>