<svg id="Layer_1" data-name="Layer 1" xmlns="http://www.w3.org/2000/svg" viewBox="0 0 563.77 162.78"><defs><style>.cls-1{fill:#d8b891;}.cls-2{fill:#a7764f;}</style></defs><title>optimumlignum_logo-wood-3</title><rect class="cls-1" width="162.78" height="162.78" rx="24.26"/><path class="cls-2" d="M872.57,470.58a28.93,28.93,0,0,1,14.32,3.36,22.68,22.68,0,0,1,9.25,9.67,37.23,37.23,0,0,1,0,30.38,22.68,22.68,0,0,1-9.25,9.67,32.28,32.28,0,0,1-28.68,0,22.54,22.54,0,0,1-9.29-9.67,37.23,37.23,0,0,1,0-30.38,22.54,22.54,0,0,1,9.29-9.67A29.17,29.17,0,0,1,872.57,470.58Zm0,11.2a11.46,11.46,0,0,0-6.72,1.91,11.65,11.65,0,0,0-4.15,5.69,32,32,0,0,0,0,18.8,11.6,11.6,0,0,0,4.15,5.72,11.38,11.38,0,0,0,6.72,1.91,11.21,11.21,0,0,0,6.68-1.91,11.72,11.72,0,0,0,4.11-5.72,32,32,0,0,0,0-18.8,11.77,11.77,0,0,0-4.11-5.69A11.28,11.28,0,0,0,872.57,481.78Z" transform="translate(-644.12 -453.84)"/><path class="cls-2" d="M906.35,543.62V484.69h12.7l.75,15L918.14,498a18,18,0,0,1,2.57-7.3,14.61,14.61,0,0,1,5.15-5,14.09,14.09,0,0,1,7.22-1.83,15.82,15.82,0,0,1,9,2.53,16.64,16.64,0,0,1,5.94,7.3,28.56,28.56,0,0,1,2.11,11.58A28.91,28.91,0,0,1,947.93,517a16.92,16.92,0,0,1-6,7.47,15.93,15.93,0,0,1-9,2.57,12.6,12.6,0,0,1-9.13-3.36,16.66,16.66,0,0,1-4.65-8.51l1.33-2v30.46Zm21.75-27a6.8,6.8,0,0,0,5.72-2.69q2.08-2.7,2.08-8.51t-2-8.51a6.73,6.73,0,0,0-5.69-2.7,6.65,6.65,0,0,0-4.07,1.29,8.15,8.15,0,0,0-2.69,3.78,17.13,17.13,0,0,0-1,6.14,18.61,18.61,0,0,0,.87,6,7.89,7.89,0,0,0,2.62,3.86A6.66,6.66,0,0,0,928.1,516.64Z" transform="translate(-644.12 -453.84)"/><path class="cls-2" d="M986.11,484.69v10H952.5v-10Zm-12.36-13.2v39.93c0,2,.48,3.41,1.45,4.27a5.86,5.86,0,0,0,4,1.29,11.69,11.69,0,0,0,3.44-.46,8,8,0,0,0,2.61-1.37l1.5,8.71a15.68,15.68,0,0,1-5.23,2.33,25.45,25.45,0,0,1-6.47.83,22.62,22.62,0,0,1-8.18-1.33,10.59,10.59,0,0,1-5.31-4.23,14.5,14.5,0,0,1-2-7.72V475.39Z" transform="translate(-644.12 -453.84)"/><path class="cls-2" d="M998.07,479.88q-4.32,0-6.27-1.62t-1.95-5.11q0-3.57,1.95-5.19t6.27-1.61q4.23,0,6.22,1.61t2,5.19q0,3.5-2,5.11T998.07,479.88Zm7,4.81v41.5H991v-41.5Z" transform="translate(-644.12 -453.84)"/><path class="cls-2" d="M1013.5,526.19v-41.5h12.62l.41,8.05a14.67,14.67,0,0,1,5.61-6.64,15.49,15.49,0,0,1,8.34-2.24,15.19,15.19,0,0,1,8,2.07,12.51,12.51,0,0,1,5.06,6.15,14.11,14.11,0,0,1,3.45-4.57,14.25,14.25,0,0,1,4.85-2.74,17.73,17.73,0,0,1,5.65-.91,15.77,15.77,0,0,1,7.3,1.62,12.05,12.05,0,0,1,5,4.89,16.31,16.31,0,0,1,1.87,8.18v27.64h-14.11v-24.4q0-4-1.54-5.56a5.47,5.47,0,0,0-4.11-1.58,7.1,7.1,0,0,0-3.77,1,6.64,6.64,0,0,0-2.62,3.11,13,13,0,0,0-.91,5.23v22.16h-14.11v-24.4q0-4-1.58-5.56a5.49,5.49,0,0,0-4.06-1.58,7,7,0,0,0-3.61,1,6.77,6.77,0,0,0-2.7,3.11,12.94,12.94,0,0,0-1,5.52v21.91Z" transform="translate(-644.12 -453.84)"/><path class="cls-2" d="M1104,527a17.94,17.94,0,0,1-7.43-1.45,10.83,10.83,0,0,1-5-4.69,17.14,17.14,0,0,1-1.82-8.47V484.69h14.11v24.4q0,4,1.57,5.56a6.08,6.08,0,0,0,4.49,1.58,7.45,7.45,0,0,0,2.82-.54A6.18,6.18,0,0,0,1115,514a7.6,7.6,0,0,0,1.54-2.91,14.45,14.45,0,0,0,.54-4.19V484.69h14.11v41.5h-12.62l-.41-7.8a14,14,0,0,1-5.57,6.51A16.63,16.63,0,0,1,1104,527Z" transform="translate(-644.12 -453.84)"/><path class="cls-2" d="M1139.66,526.19v-41.5h12.62l.41,8.05a14.71,14.71,0,0,1,5.6-6.64,15.55,15.55,0,0,1,8.35-2.24,15.21,15.21,0,0,1,8,2.07,12.51,12.51,0,0,1,5.06,6.15,13.83,13.83,0,0,1,3.45-4.57,14.16,14.16,0,0,1,4.85-2.74,17.72,17.72,0,0,1,5.64-.91,15.81,15.81,0,0,1,7.31,1.62,12.11,12.11,0,0,1,5,4.89,16.41,16.41,0,0,1,1.87,8.18v27.64h-14.11v-24.4c0-2.66-.52-4.51-1.54-5.56a5.47,5.47,0,0,0-4.11-1.58,7.1,7.1,0,0,0-3.77,1,6.64,6.64,0,0,0-2.62,3.11,13,13,0,0,0-.91,5.23v22.16h-14.11v-24.4q0-4-1.58-5.56a5.49,5.49,0,0,0-4.06-1.58,7,7,0,0,0-3.62,1,6.81,6.81,0,0,0-2.69,3.11,12.94,12.94,0,0,0-1,5.52v21.91Z" transform="translate(-644.12 -453.84)"/><path class="cls-2" d="M862.28,583.15h27.47v11H848V539.41h14.28Z" transform="translate(-644.12 -453.84)"/><path class="cls-2" d="M902.37,547.88q-4.32,0-6.27-1.62t-2-5.11q0-3.57,2-5.19t6.27-1.61q4.23,0,6.22,1.61t2,5.19q0,3.5-2,5.11T902.37,547.88Zm7,4.81v41.5H895.31v-41.5Z" transform="translate(-644.12 -453.84)"/><path class="cls-2" d="M943.7,585q7.21,0,11.08,3t3.86,8.67a13,13,0,0,1-2.82,8.55,16.93,16.93,0,0,1-7.93,5.1,38.15,38.15,0,0,1-12.08,1.7q-11.28,0-16.26-2.82t-5-7.63a6.78,6.78,0,0,1,2.82-5.65q2.82-2.16,9.38-2.32l-.33,1.33c-3.38-.45-5.9-1.44-7.56-3a8.21,8.21,0,0,1-2.49-6.31,7.84,7.84,0,0,1,3.16-6.47,14.23,14.23,0,0,1,8.38-2.74l5.15,2.4h-1.33a9.41,9.41,0,0,0-4.57,1.08,2.69,2.69,0,0,0-1.33,2.24,2.31,2.31,0,0,0,1.17,2.12,6.8,6.8,0,0,0,3.48.71Zm-7.3-33.12a31.1,31.1,0,0,1,10.79,1.66,14.8,14.8,0,0,1,6.84,4.77,13.56,13.56,0,0,1,0,15.32,14.38,14.38,0,0,1-6.84,4.77A31.88,31.88,0,0,1,936.4,580q-9.89,0-15-3.66a12,12,0,0,1-5.1-10.37,12.38,12.38,0,0,1,2.36-7.68,14.83,14.83,0,0,1,6.85-4.77A31.36,31.36,0,0,1,936.4,551.86Zm-.5,51a33.58,33.58,0,0,0,6.6-.54,10.46,10.46,0,0,0,3.94-1.49,2.73,2.73,0,0,0,1.33-2.2,2.33,2.33,0,0,0-.92-1.95,5.68,5.68,0,0,0-3.32-.7H928.68a3.75,3.75,0,0,0-2.54.82,2.67,2.67,0,0,0-.95,2.08c0,1.27.94,2.25,2.82,3A23.78,23.78,0,0,0,935.9,602.9Zm.5-43a6.31,6.31,0,0,0-4.45,1.58,5.81,5.81,0,0,0-1.7,4.48,5.72,5.72,0,0,0,1.7,4.4,7,7,0,0,0,8.84,0,5.61,5.61,0,0,0,1.75-4.4,5.7,5.7,0,0,0-1.75-4.48A6.29,6.29,0,0,0,936.4,559.91ZM958,541.57l1.16,9.46a4.46,4.46,0,0,0-1-.21c-.33,0-.66,0-1,0-2.44,0-4.25.6-5.44,1.78a6,6,0,0,0-1.79,4.44l-5-1.82a17.74,17.74,0,0,1,1.25-6.56,11.74,11.74,0,0,1,3.86-5.14,10.56,10.56,0,0,1,6.6-2h.62A2.76,2.76,0,0,1,958,541.57Z" transform="translate(-644.12 -453.84)"/><path class="cls-2" d="M962.62,594.19v-41.5h12.62L976,567l-1.58-1.57a18.44,18.44,0,0,1,3-7.47,13.78,13.78,0,0,1,5.31-4.53,16.4,16.4,0,0,1,7.18-1.53,16.06,16.06,0,0,1,7.51,1.66,12.09,12.09,0,0,1,5,4.9,16.33,16.33,0,0,1,1.83,8.13v27.64H990.1v-23.9c0-2.88-.56-4.87-1.66-6a5.73,5.73,0,0,0-4.24-1.66,7.72,7.72,0,0,0-3.73,1,6.57,6.57,0,0,0-2.74,3,13.07,13.07,0,0,0-1,5.56v22Z" transform="translate(-644.12 -453.84)"/><path class="cls-2" d="M1026.45,595a17.94,17.94,0,0,1-7.43-1.45,10.83,10.83,0,0,1-5-4.69,17.13,17.13,0,0,1-1.83-8.47V552.69h14.11v24.4q0,4,1.58,5.56a6.07,6.07,0,0,0,4.48,1.58,7.46,7.46,0,0,0,2.83-.54,6.26,6.26,0,0,0,2.32-1.66,7.76,7.76,0,0,0,1.53-2.9,14.57,14.57,0,0,0,.54-4.2V552.69h14.11v41.5h-12.61l-.42-7.8a14,14,0,0,1-5.56,6.51A16.65,16.65,0,0,1,1026.45,595Z" transform="translate(-644.12 -453.84)"/><path class="cls-2" d="M1062.14,594.19v-41.5h12.61l.42,8a14.71,14.71,0,0,1,5.6-6.64,15.54,15.54,0,0,1,8.34-2.24,15.22,15.22,0,0,1,8.06,2.07,12.56,12.56,0,0,1,5.06,6.15,13.94,13.94,0,0,1,3.44-4.57,14.2,14.2,0,0,1,4.86-2.74,17.63,17.63,0,0,1,5.64-.91,15.81,15.81,0,0,1,7.31,1.62,12.07,12.07,0,0,1,5,4.9,16.35,16.35,0,0,1,1.87,8.17v27.64h-14.12v-24.4q0-4-1.53-5.56a5.47,5.47,0,0,0-4.11-1.58,7.16,7.16,0,0,0-3.78,1,6.68,6.68,0,0,0-2.61,3.11,13,13,0,0,0-.91,5.23v22.16H1089.2v-24.4q0-4-1.58-5.56a5.52,5.52,0,0,0-4.07-1.58,7.09,7.09,0,0,0-3.61,1,6.88,6.88,0,0,0-2.69,3.12,12.94,12.94,0,0,0-1,5.52v21.91Z" transform="translate(-644.12 -453.84)"/><polygon class="cls-2" points="142.72 49.69 142.72 112.74 81.3 148.2 47.17 128.5 47.17 65.45 81.3 45.75 115.42 65.45 115.42 96.97 81.3 116.68 74.47 112.74 74.47 81.21 81.3 77.27 88.12 81.21 88.12 96.97 101.77 89.09 101.77 73.33 81.3 61.51 60.82 73.33 60.82 120.62 81.3 132.44 129.07 104.86 129.07 57.57 81.3 29.99 33.52 57.57 33.52 120.62 19.87 112.74 19.87 49.69 81.3 14.23 142.72 49.69"/></svg>