<?xml version="1.0" encoding="utf-8"?>
<!-- Generator: Adobe Illustrator 24.0.0, SVG Export Plug-In . SVG Version: 6.00 Build 0)  -->
<svg version="1.1" id="Layer_1" xmlns="http://www.w3.org/2000/svg" xmlns:xlink="http://www.w3.org/1999/xlink" x="0px" y="0px"
	 viewBox="0 0 563.8 162.8" style="enable-background:new 0 0 563.8 162.8;" xml:space="preserve">
<style type="text/css">
	.st0{fill:url(#SVGID_1_);}
	.st1{fill:#745961;}
	.st2{fill:#EAB768;}
</style>
<title>optimumlignum_logo-wood-2</title>
<linearGradient id="SVGID_1_" gradientUnits="userSpaceOnUse" x1="-13.0772" y1="173.4919" x2="172.4344" y2="-7.3527">
	<stop  offset="0" style="stop-color:#745961"/>
	<stop  offset="0.3314" style="stop-color:#A17D64"/>
	<stop  offset="0.7599" style="stop-color:#D5A767"/>
	<stop  offset="0.9695" style="stop-color:#EAB768"/>
</linearGradient>
<path class="st0" d="M129.7,162.8H33.1C14.8,162.8,0,148,0,129.7V33.1C0,14.8,14.8,0,33.1,0h96.5c18.3,0,33.1,14.8,33.1,33.1v96.5
	C162.8,148,148,162.8,129.7,162.8z"/>
<g>
	<g>
		<g>
			<path class="st1" d="M228.5,16.7c5.5,0,10.3,1.1,14.3,3.4c4,2.2,7.1,5.5,9.3,9.7c2.2,4.2,3.2,9.3,3.2,15.2c0,5.9-1.1,11-3.2,15.2
				c-2.2,4.2-5.2,7.4-9.3,9.7c-4,2.2-8.8,3.4-14.3,3.4c-5.5,0-10.3-1.1-14.4-3.4c-4-2.2-7.1-5.5-9.3-9.7c-2.2-4.2-3.2-9.3-3.2-15.2
				c0-5.9,1.1-11,3.2-15.2c2.2-4.2,5.3-7.4,9.3-9.7C218.1,17.9,222.9,16.7,228.5,16.7z M228.5,27.9c-2.7,0-4.9,0.6-6.7,1.9
				c-1.8,1.3-3.2,3.2-4.1,5.7c-0.9,2.5-1.4,5.7-1.4,9.4c0,3.7,0.5,6.8,1.4,9.4c0.9,2.5,2.3,4.5,4.1,5.7c1.8,1.3,4.1,1.9,6.7,1.9
				c2.7,0,4.9-0.6,6.7-1.9c1.8-1.3,3.2-3.2,4.1-5.7c0.9-2.5,1.4-5.7,1.4-9.4c0-3.8-0.5-6.9-1.4-9.4c-0.9-2.5-2.3-4.4-4.1-5.7
				C233.3,28.6,231.1,27.9,228.5,27.9z"/>
			<path class="st1" d="M262.4,89.8V30.9h12.7l0.7,15l-1.7-1.7c0.4-2.8,1.2-5.2,2.6-7.3c1.3-2.1,3-3.8,5.1-5
				c2.1-1.2,4.5-1.8,7.2-1.8c3.4,0,6.4,0.8,9,2.5c2.5,1.7,4.5,4.1,5.9,7.3c1.4,3.2,2.1,7,2.1,11.6c0,4.5-0.7,8.4-2.2,11.7
				c-1.4,3.3-3.4,5.8-6,7.5c-2.6,1.7-5.6,2.6-9,2.6c-3.8,0-6.8-1.1-9.1-3.4c-2.3-2.2-3.9-5.1-4.6-8.5l1.3-2v30.5H262.4z M284.1,62.8
				c2.4,0,4.3-0.9,5.7-2.7c1.4-1.8,2.1-4.6,2.1-8.5c0-3.9-0.7-6.7-2-8.5c-1.4-1.8-3.3-2.7-5.7-2.7c-1.6,0-2.9,0.4-4.1,1.3
				c-1.2,0.9-2.1,2.1-2.7,3.8c-0.6,1.7-1,3.7-1,6.1c0,2.3,0.3,4.3,0.9,6c0.6,1.7,1.5,3,2.6,3.9C281.2,62.4,282.5,62.8,284.1,62.8z"
				/>
			<path class="st1" d="M342.5,30.9v10h-33.6v-10H342.5z M330.1,17.7v39.9c0,2,0.5,3.4,1.5,4.3c1,0.9,2.3,1.3,4,1.3
				c1.3,0,2.5-0.2,3.4-0.5c1-0.3,1.8-0.8,2.6-1.4l1.5,8.7c-1.4,1-3.1,1.8-5.2,2.3c-2.1,0.6-4.3,0.8-6.5,0.8c-3.2,0-5.9-0.4-8.2-1.3
				c-2.3-0.9-4.1-2.3-5.3-4.2c-1.2-1.9-1.9-4.5-2-7.7V21.6L330.1,17.7z"/>
			<path class="st1" d="M354.4,26c-2.9,0-5-0.5-6.3-1.6c-1.3-1.1-2-2.8-2-5.1c0-2.4,0.7-4.1,2-5.2c1.3-1.1,3.4-1.6,6.3-1.6
				c2.8,0,4.9,0.5,6.2,1.6s2,2.8,2,5.2c0,2.3-0.7,4-2,5.1S357.3,26,354.4,26z M361.5,30.9v41.5h-14.1V30.9H361.5z"/>
			<path class="st1" d="M369.9,72.4V30.9h12.6l0.4,8.1c1.3-2.9,3.2-5.1,5.6-6.6c2.4-1.5,5.2-2.2,8.3-2.2c3.1,0,5.8,0.7,8.1,2.1
				c2.3,1.4,4,3.4,5.1,6.1c0.9-1.8,2-3.3,3.4-4.6c1.4-1.2,3-2.1,4.9-2.7c1.8-0.6,3.7-0.9,5.6-0.9c2.8,0,5.2,0.5,7.3,1.6
				c2.1,1.1,3.8,2.7,5,4.9c1.2,2.2,1.9,4.9,1.9,8.2v27.6H424V48c0-2.7-0.5-4.5-1.5-5.6c-1-1.1-2.4-1.6-4.1-1.6c-1.4,0-2.6,0.3-3.8,1
				c-1.1,0.7-2,1.7-2.6,3.1c-0.6,1.4-0.9,3.1-0.9,5.2v22.2h-14.1V48c0-2.7-0.5-4.5-1.6-5.6c-1.1-1.1-2.4-1.6-4.1-1.6
				c-1.3,0-2.5,0.3-3.6,1c-1.1,0.7-2,1.7-2.7,3.1c-0.7,1.4-1,3.3-1,5.5v21.9H369.9z"/>
			<path class="st1" d="M460.4,73.2c-2.8,0-5.3-0.5-7.4-1.5c-2.1-1-3.8-2.5-5-4.7c-1.2-2.2-1.8-5-1.8-8.5V30.9h14.1v24.4
				c0,2.7,0.5,4.5,1.6,5.6c1,1.1,2.5,1.6,4.5,1.6c1,0,1.9-0.2,2.8-0.5c0.9-0.4,1.7-0.9,2.3-1.7s1.2-1.7,1.5-2.9
				c0.4-1.2,0.5-2.6,0.5-4.2V30.9h14.1v41.5H475l-0.4-7.8c-1.3,2.9-3.2,5.1-5.6,6.5C466.6,72.5,463.7,73.2,460.4,73.2z"/>
			<path class="st1" d="M496,72.4V30.9h12.6l0.4,8.1c1.3-2.9,3.2-5.1,5.6-6.6c2.4-1.5,5.2-2.2,8.3-2.2c3.1,0,5.8,0.7,8.1,2.1
				c2.3,1.4,4,3.4,5.1,6.1c0.9-1.8,2-3.3,3.4-4.6c1.4-1.2,3-2.1,4.9-2.7c1.8-0.6,3.7-0.9,5.6-0.9c2.8,0,5.2,0.5,7.3,1.6
				c2.1,1.1,3.8,2.7,5,4.9c1.2,2.2,1.9,4.9,1.9,8.2v27.6h-14.1V48c0-2.7-0.5-4.5-1.5-5.6c-1-1.1-2.4-1.6-4.1-1.6
				c-1.4,0-2.6,0.3-3.8,1c-1.1,0.7-2,1.7-2.6,3.1c-0.6,1.4-0.9,3.1-0.9,5.2v22.2h-14.1V48c0-2.7-0.5-4.5-1.6-5.6
				c-1.1-1.1-2.4-1.6-4.1-1.6c-1.3,0-2.5,0.3-3.6,1c-1.1,0.7-2,1.7-2.7,3.1c-0.7,1.4-1,3.3-1,5.5v21.9H496z"/>
			<path class="st1" d="M218.2,129.3h27.5v11h-41.7V85.6h14.3V129.3z"/>
			<path class="st1" d="M258.3,94c-2.9,0-5-0.5-6.3-1.6c-1.3-1.1-2-2.8-2-5.1c0-2.4,0.6-4.1,2-5.2c1.3-1.1,3.4-1.6,6.3-1.6
				c2.8,0,4.9,0.5,6.2,1.6c1.3,1.1,2,2.8,2,5.2c0,2.3-0.7,4-2,5.1C263.1,93.5,261.1,94,258.3,94z M265.3,98.9v41.5h-14.1V98.9H265.3
				z"/>
			<path class="st1" d="M299.6,131.1c4.8,0,8.5,1,11.1,3c2.6,2,3.9,4.9,3.9,8.7c0,3.4-0.9,6.3-2.8,8.5c-1.9,2.3-4.5,4-7.9,5.1
				c-3.4,1.1-7.4,1.7-12.1,1.7c-7.5,0-12.9-0.9-16.3-2.8c-3.3-1.9-5-4.4-5-7.6c0-2.3,0.9-4.2,2.8-5.6c1.9-1.4,5-2.2,9.4-2.3
				l-0.3,1.3c-3.4-0.4-5.9-1.4-7.6-3c-1.7-1.5-2.5-3.7-2.5-6.3c0-2.7,1.1-4.8,3.2-6.5c2.1-1.7,4.9-2.6,8.4-2.7l5.1,2.4h-1.3
				c-2.2,0.1-3.7,0.5-4.6,1.1c-0.9,0.6-1.3,1.4-1.3,2.2c0,0.9,0.4,1.6,1.2,2.1c0.8,0.5,1.9,0.7,3.5,0.7H299.6z M292.3,98
				c4.2,0,7.8,0.6,10.8,1.7c3,1.1,5.3,2.7,6.8,4.8s2.4,4.6,2.4,7.7c0,3-0.8,5.5-2.4,7.6c-1.6,2.1-3.9,3.7-6.8,4.8
				c-3,1.1-6.6,1.6-10.8,1.6c-6.6,0-11.6-1.2-15-3.7c-3.4-2.4-5.1-5.9-5.1-10.4c0-3,0.8-5.6,2.4-7.7s3.9-3.7,6.8-4.8
				C284.4,98.6,288,98,292.3,98z M291.8,149.1c2.7,0,4.9-0.2,6.6-0.5c1.7-0.4,3.1-0.9,3.9-1.5c0.9-0.6,1.3-1.4,1.3-2.2
				s-0.3-1.5-0.9-2c-0.6-0.5-1.7-0.7-3.3-0.7h-14.9c-1.1,0-1.9,0.3-2.5,0.8c-0.6,0.6-1,1.2-1,2.1c0,1.3,0.9,2.3,2.8,2.9
				C285.8,148.7,288.4,149.1,291.8,149.1z M292.3,106.1c-1.8,0-3.3,0.5-4.4,1.6c-1.1,1.1-1.7,2.5-1.7,4.5c0,1.9,0.6,3.3,1.7,4.4
				c1.1,1.1,2.6,1.6,4.4,1.6c1.8,0,3.2-0.5,4.4-1.6c1.2-1.1,1.7-2.5,1.7-4.4c0-1.9-0.6-3.4-1.7-4.5
				C295.5,106.6,294,106.1,292.3,106.1z M313.9,87.7l1.2,9.5c-0.3-0.1-0.7-0.2-1-0.2c-0.3,0-0.7,0-1,0c-2.4,0-4.2,0.6-5.4,1.8
				c-1.2,1.2-1.8,2.7-1.8,4.4l-5-1.8c0-2.3,0.4-4.5,1.2-6.6c0.8-2.1,2.1-3.8,3.9-5.1c1.7-1.3,3.9-2,6.6-2c0.2,0,0.4,0,0.6,0
				S313.6,87.7,313.9,87.7z"/>
			<path class="st1" d="M318.5,140.4V98.9h12.6l0.7,14.3l-1.6-1.6c0.6-3,1.5-5.5,2.9-7.5s3.2-3.5,5.3-4.5c2.1-1,4.5-1.5,7.2-1.5
				c2.9,0,5.4,0.6,7.5,1.7c2.1,1.1,3.8,2.7,5,4.9c1.2,2.2,1.8,4.9,1.8,8.1v27.6H346v-23.9c0-2.9-0.6-4.9-1.7-6
				c-1.1-1.1-2.5-1.7-4.2-1.7c-1.3,0-2.6,0.3-3.7,1c-1.2,0.6-2.1,1.6-2.7,3c-0.7,1.4-1,3.2-1,5.6v22H318.5z"/>
			<path class="st1" d="M382.3,141.2c-2.8,0-5.3-0.5-7.4-1.5c-2.1-1-3.8-2.5-5-4.7c-1.2-2.2-1.8-5-1.8-8.5V98.9h14.1v24.4
				c0,2.7,0.5,4.5,1.6,5.6c1,1.1,2.5,1.6,4.5,1.6c1,0,1.9-0.2,2.8-0.5c0.9-0.4,1.7-0.9,2.3-1.7s1.2-1.7,1.5-2.9
				c0.4-1.2,0.5-2.6,0.5-4.2V98.9h14.1v41.5h-12.6l-0.4-7.8c-1.3,2.9-3.2,5.1-5.6,6.5C388.6,140.5,385.7,141.2,382.3,141.2z"/>
			<path class="st1" d="M418,140.4V98.9h12.6l0.4,8.1c1.3-2.9,3.2-5.1,5.6-6.6c2.4-1.5,5.2-2.2,8.3-2.2c3.1,0,5.8,0.7,8.1,2.1
				c2.3,1.4,4,3.4,5.1,6.1c0.9-1.8,2-3.3,3.4-4.6c1.4-1.2,3-2.1,4.9-2.7c1.8-0.6,3.7-0.9,5.6-0.9c2.8,0,5.2,0.5,7.3,1.6
				c2.1,1.1,3.8,2.7,5,4.9c1.2,2.2,1.9,4.9,1.9,8.2v27.6h-14.1V116c0-2.7-0.5-4.5-1.5-5.6c-1-1.1-2.4-1.6-4.1-1.6
				c-1.4,0-2.6,0.3-3.8,1c-1.1,0.7-2,1.7-2.6,3.1c-0.6,1.4-0.9,3.1-0.9,5.2v22.2h-14.1V116c0-2.7-0.5-4.5-1.6-5.6
				c-1.1-1.1-2.4-1.6-4.1-1.6c-1.3,0-2.5,0.3-3.6,1c-1.1,0.7-2,1.7-2.7,3.1s-1,3.3-1,5.5v21.9H418z"/>
		</g>
	</g>
</g>
<polygon class="st2" points="142.7,49.7 142.7,112.7 81.3,148.2 47.2,128.5 47.2,65.5 81.3,45.8 115.4,65.5 115.4,97 81.3,116.7 
	74.5,112.7 74.5,81.2 81.3,77.3 88.1,81.2 88.1,97 101.8,89.1 101.8,73.3 81.3,61.5 60.8,73.3 60.8,120.6 81.3,132.4 129.1,104.9 
	129.1,57.6 81.3,30 33.5,57.6 33.5,120.6 19.9,112.7 19.9,49.7 81.3,14.2 "/>
</svg>
