<svg id="Layer_1" data-name="Layer 1" xmlns="http://www.w3.org/2000/svg" viewBox="0 0 512.08 145.69"><defs><style>.cls-1{fill:#2c2e3f;}</style></defs><title>optimumlignum_logo-wood-bw</title><path class="cls-1" d="M202.4,353.4a29,29,0,0,1,14.32,3.36,22.74,22.74,0,0,1,9.25,9.67,37.23,37.23,0,0,1,0,30.38,22.62,22.62,0,0,1-9.25,9.67,32.28,32.28,0,0,1-28.68,0,22.56,22.56,0,0,1-9.3-9.67,37.33,37.33,0,0,1,0-30.38,22.67,22.67,0,0,1,9.3-9.67A29.15,29.15,0,0,1,202.4,353.4Zm0,11.21a11.44,11.44,0,0,0-6.73,1.91,11.74,11.74,0,0,0-4.15,5.68,32,32,0,0,0,0,18.8,11.7,11.7,0,0,0,4.15,5.73,11.51,11.51,0,0,0,6.73,1.91,11.31,11.31,0,0,0,6.68-1.91,11.71,11.71,0,0,0,4.11-5.73,32,32,0,0,0,0-18.8,11.74,11.74,0,0,0-4.11-5.68A11.24,11.24,0,0,0,202.4,364.61Z" transform="translate(-25.64 -349.17)"/><path class="cls-1" d="M236.18,426.44V367.51h12.7l.74,15L248,380.79a18.26,18.26,0,0,1,2.58-7.3,14.84,14.84,0,0,1,5.14-5,14.14,14.14,0,0,1,7.22-1.83,15.94,15.94,0,0,1,9,2.53,16.58,16.58,0,0,1,5.93,7.31,28.48,28.48,0,0,1,2.12,11.58,28.86,28.86,0,0,1-2.16,11.7,16.76,16.76,0,0,1-6,7.47,15.79,15.79,0,0,1-9,2.57,12.6,12.6,0,0,1-9.13-3.36A16.48,16.48,0,0,1,249,398l1.33-2v30.46Zm21.74-27a6.82,6.82,0,0,0,5.73-2.7c1.38-1.8,2.08-4.63,2.08-8.51s-.68-6.71-2-8.5a7.24,7.24,0,0,0-9.75-1.42,8.24,8.24,0,0,0-2.7,3.78,17.41,17.41,0,0,0-1,6.14,18.57,18.57,0,0,0,.87,6,7.9,7.9,0,0,0,2.61,3.86A6.65,6.65,0,0,0,257.92,399.47Z" transform="translate(-25.64 -349.17)"/><path class="cls-1" d="M315.94,367.51v10.05H282.33V367.51Zm-12.36-13.19v39.92c0,2,.48,3.42,1.45,4.27a5.85,5.85,0,0,0,4,1.29,11.39,11.39,0,0,0,3.45-.46,8.05,8.05,0,0,0,2.61-1.37l1.5,8.72a15.88,15.88,0,0,1-5.23,2.32,25.53,25.53,0,0,1-6.48.83,22.57,22.57,0,0,1-8.17-1.33,10.59,10.59,0,0,1-5.31-4.23,14.48,14.48,0,0,1-1.95-7.72V358.22Z" transform="translate(-25.64 -349.17)"/><path class="cls-1" d="M327.89,362.7q-4.31,0-6.26-1.62t-1.95-5.1q0-3.57,1.95-5.19t6.26-1.62c2.83,0,4.9.54,6.23,1.62s2,2.81,2,5.19-.66,4-2,5.1S330.72,362.7,327.89,362.7Zm7.06,4.81V409H320.84v-41.5Z" transform="translate(-25.64 -349.17)"/><path class="cls-1" d="M343.33,409v-41.5H356l.41,8.05a14.76,14.76,0,0,1,5.6-6.64,15.55,15.55,0,0,1,8.35-2.24,15.22,15.22,0,0,1,8.05,2.08,12.44,12.44,0,0,1,5.06,6.14,13.94,13.94,0,0,1,3.44-4.57,14.35,14.35,0,0,1,4.86-2.73,17.68,17.68,0,0,1,5.64-.92,15.81,15.81,0,0,1,7.31,1.62,12.07,12.07,0,0,1,5,4.9,16.35,16.35,0,0,1,1.87,8.17V409H397.45v-24.4c0-2.66-.52-4.51-1.54-5.56a5.47,5.47,0,0,0-4.11-1.58,7.1,7.1,0,0,0-3.77,1,6.64,6.64,0,0,0-2.62,3.11,13,13,0,0,0-.91,5.23V409H370.39v-24.4q0-4-1.58-5.56a5.52,5.52,0,0,0-4.07-1.58,7,7,0,0,0-3.61,1,6.81,6.81,0,0,0-2.69,3.11,12.94,12.94,0,0,0-1,5.52V409Z" transform="translate(-25.64 -349.17)"/><path class="cls-1" d="M433.8,409.84a17.78,17.78,0,0,1-7.43-1.45,10.83,10.83,0,0,1-5-4.69,17.13,17.13,0,0,1-1.83-8.47V367.51h14.11v24.4q0,4,1.58,5.57a6.07,6.07,0,0,0,4.48,1.57,7.46,7.46,0,0,0,2.83-.54,6.26,6.26,0,0,0,2.32-1.66,7.75,7.75,0,0,0,1.54-2.9,14.93,14.93,0,0,0,.53-4.19V367.51H461V409H448.41l-.42-7.8a14,14,0,0,1-5.56,6.52A16.65,16.65,0,0,1,433.8,409.84Z" transform="translate(-25.64 -349.17)"/><path class="cls-1" d="M469.49,409v-41.5h12.62l.41,8.05a14.76,14.76,0,0,1,5.6-6.64,15.54,15.54,0,0,1,8.34-2.24,15.17,15.17,0,0,1,8.05,2.08,12.46,12.46,0,0,1,5.07,6.14,13.94,13.94,0,0,1,3.44-4.57,14.35,14.35,0,0,1,4.86-2.73,17.63,17.63,0,0,1,5.64-.92,15.81,15.81,0,0,1,7.31,1.62,12.07,12.07,0,0,1,5,4.9,16.35,16.35,0,0,1,1.86,8.17V409h-14.1v-24.4c0-2.66-.52-4.51-1.54-5.56a5.48,5.48,0,0,0-4.11-1.58,7.16,7.16,0,0,0-3.78,1,6.68,6.68,0,0,0-2.61,3.11,13,13,0,0,0-.91,5.23V409H496.55v-24.4q0-4-1.58-5.56a5.52,5.52,0,0,0-4.07-1.58,7,7,0,0,0-3.61,1,6.88,6.88,0,0,0-2.7,3.11,13.11,13.11,0,0,0-1,5.52V409Z" transform="translate(-25.64 -349.17)"/><path class="cls-1" d="M192.11,466h27.47v11H177.83V422.23h14.28Z" transform="translate(-25.64 -349.17)"/><path class="cls-1" d="M232.19,430.7q-4.31,0-6.26-1.62t-2-5.1q0-3.57,2-5.19t6.26-1.62c2.83,0,4.9.54,6.23,1.62s2,2.81,2,5.19-.66,4-2,5.1S235,430.7,232.19,430.7Zm7.06,4.81V477H225.14v-41.5Z" transform="translate(-25.64 -349.17)"/><path class="cls-1" d="M273.53,467.8q7.22,0,11.08,3t3.86,8.67a13,13,0,0,1-2.82,8.55,17.07,17.07,0,0,1-7.93,5.11,38.44,38.44,0,0,1-12.08,1.7q-11.28,0-16.27-2.82t-5-7.64a6.75,6.75,0,0,1,2.83-5.64c1.88-1.44,5-2.22,9.38-2.33l-.34,1.33q-5.06-.66-7.55-3a8.21,8.21,0,0,1-2.49-6.31,7.87,7.87,0,0,1,3.15-6.47,14.35,14.35,0,0,1,8.39-2.74l5.14,2.41h-1.32a9.29,9.29,0,0,0-4.57,1.08,2.65,2.65,0,0,0-1.33,2.24,2.31,2.31,0,0,0,1.16,2.11,6.87,6.87,0,0,0,3.49.71Zm-7.31-33.12A31.26,31.26,0,0,1,277,436.34a14.77,14.77,0,0,1,6.85,4.78,13.55,13.55,0,0,1,0,15.31A14.41,14.41,0,0,1,277,461.2a31.8,31.8,0,0,1-10.79,1.62q-9.87,0-15-3.65a12,12,0,0,1-5.1-10.38,12.33,12.33,0,0,1,2.36-7.67,14.77,14.77,0,0,1,6.85-4.78A31.58,31.58,0,0,1,266.22,434.68Zm-.49,51.05a33.4,33.4,0,0,0,6.59-.54,10.44,10.44,0,0,0,3.95-1.5,2.7,2.7,0,0,0,1.32-2.2,2.32,2.32,0,0,0-.91-1.95,5.68,5.68,0,0,0-3.32-.7H258.5a3.69,3.69,0,0,0-2.53.83,2.64,2.64,0,0,0-.95,2.07c0,1.28.94,2.26,2.82,2.95A23.74,23.74,0,0,0,265.73,485.73Zm.49-43a6.3,6.3,0,0,0-4.44,1.58,5.83,5.83,0,0,0-1.7,4.48,5.72,5.72,0,0,0,1.7,4.4,7,7,0,0,0,8.84,0,5.64,5.64,0,0,0,1.75-4.4,5.75,5.75,0,0,0-1.75-4.48A6.32,6.32,0,0,0,266.22,442.73Zm21.58-18.34,1.17,9.46a4.58,4.58,0,0,0-1-.21c-.33,0-.66,0-1,0q-3.64,0-5.43,1.79a6,6,0,0,0-1.79,4.44l-5-1.83a17.65,17.65,0,0,1,1.25-6.55,11.69,11.69,0,0,1,3.86-5.15,10.55,10.55,0,0,1,6.6-2h.62A3.13,3.13,0,0,1,287.8,424.39Z" transform="translate(-25.64 -349.17)"/><path class="cls-1" d="M292.45,477v-41.5h12.62l.74,14.28-1.57-1.58a18.57,18.57,0,0,1,2.94-7.47,13.63,13.63,0,0,1,5.32-4.52,17.67,17.67,0,0,1,14.69.12,12.09,12.09,0,0,1,5,4.9,16.46,16.46,0,0,1,1.82,8.13V477H319.92v-23.9q0-4.32-1.66-6a5.73,5.73,0,0,0-4.23-1.66,7.59,7.59,0,0,0-3.73,1,6.42,6.42,0,0,0-2.74,3,12.86,12.86,0,0,0-1,5.56v22Z" transform="translate(-25.64 -349.17)"/><path class="cls-1" d="M356.28,477.84a17.78,17.78,0,0,1-7.43-1.45,10.78,10.78,0,0,1-5-4.69,17.13,17.13,0,0,1-1.83-8.47V435.51h14.11v24.4c0,2.66.53,4.51,1.58,5.57a6.05,6.05,0,0,0,4.48,1.57,7.37,7.37,0,0,0,2.82-.54,6.21,6.21,0,0,0,2.33-1.66,7.6,7.6,0,0,0,1.53-2.9,14.55,14.55,0,0,0,.54-4.19V435.51H383.5V477H370.89l-.42-7.8a14,14,0,0,1-5.56,6.52A16.65,16.65,0,0,1,356.28,477.84Z" transform="translate(-25.64 -349.17)"/><path class="cls-1" d="M392,477v-41.5h12.61l.42,8.05a14.7,14.7,0,0,1,5.6-6.64,15.54,15.54,0,0,1,8.34-2.24,15.19,15.19,0,0,1,8.05,2.08,12.46,12.46,0,0,1,5.07,6.14,13.94,13.94,0,0,1,3.44-4.57,14.35,14.35,0,0,1,4.86-2.73,17.63,17.63,0,0,1,5.64-.92,15.74,15.74,0,0,1,7.3,1.62,12,12,0,0,1,5,4.9,16.35,16.35,0,0,1,1.86,8.17V477H446.08v-24.4q0-4-1.53-5.56a5.5,5.5,0,0,0-4.11-1.58,7.14,7.14,0,0,0-3.78,1,6.68,6.68,0,0,0-2.61,3.11,13,13,0,0,0-.92,5.23V477H419v-24.4q0-4-1.57-5.56a5.52,5.52,0,0,0-4.07-1.58,7,7,0,0,0-3.61,1,6.88,6.88,0,0,0-2.7,3.11,13.11,13.11,0,0,0-1,5.52V477Z" transform="translate(-25.64 -349.17)"/><polygon class="cls-1" points="122.85 40.32 122.85 103.36 61.42 138.83 27.3 119.13 27.3 56.08 61.42 36.38 95.55 56.08 95.55 87.6 61.42 107.31 54.6 103.36 54.6 71.84 61.42 67.9 68.25 71.84 68.25 87.6 81.9 79.72 81.9 63.96 61.42 52.14 40.95 63.96 40.95 111.25 61.42 123.07 109.2 95.48 109.2 48.2 61.42 20.62 13.65 48.2 13.65 111.25 0 103.36 0 40.32 61.42 4.85 122.85 40.32"/></svg>