<svg id="Layer_2" data-name="Layer 2" xmlns="http://www.w3.org/2000/svg" viewBox="0 0 807.04 106.24"><defs><style>.cls-1{fill:#ec4d37;}</style></defs><title>optimumlignum_logo-underline2</title><path class="cls-1" d="M0,0H113.74a0,0,0,0,1,0,0V11.72a10,10,0,0,1-10,10H0a0,0,0,0,1,0,0V0A0,0,0,0,1,0,0Z"/><path class="cls-1" d="M0,28.17H103.74a10,10,0,0,1,10,10V49.89a0,0,0,0,1,0,0H0a0,0,0,0,1,0,0V28.17A0,0,0,0,1,0,28.17Z"/><rect class="cls-1" y="56.35" width="113.74" height="21.72"/><path class="cls-1" d="M10,84.52H807a0,0,0,0,1,0,0V96.24a10,10,0,0,1-10,10H0a0,0,0,0,1,0,0V94.52A10,10,0,0,1,10,84.52Z"/><path class="cls-1" d="M614,611.73a32.38,32.38,0,0,1-11.34-1.94,26.82,26.82,0,0,1-9-5.51,25.33,25.33,0,0,1-5.94-8.39,27.21,27.21,0,0,1,0-21.06,25.58,25.58,0,0,1,5.94-8.35,27,27,0,0,1,9-5.51,34.2,34.2,0,0,1,22.71,0,26.9,26.9,0,0,1,9,5.51,25.29,25.29,0,0,1,5.94,8.35,27.09,27.09,0,0,1,0,21.06,25,25,0,0,1-5.94,8.39,26.74,26.74,0,0,1-9,5.51A32.23,32.23,0,0,1,614,611.73ZM614,598a11.43,11.43,0,0,0,4.43-.86,10.88,10.88,0,0,0,3.6-2.49,11.41,11.41,0,0,0,2.41-4,16.7,16.7,0,0,0,0-10.58,11.41,11.41,0,0,0-2.41-4,10.7,10.7,0,0,0-3.6-2.48,11.71,11.71,0,0,0-8.86,0,10.51,10.51,0,0,0-3.6,2.48,11.26,11.26,0,0,0-2.41,4,16.52,16.52,0,0,0,0,10.58,11.26,11.26,0,0,0,2.41,4,10.68,10.68,0,0,0,3.6,2.49A11.4,11.4,0,0,0,614,598Z" transform="translate(-452.75 -540)"/><path class="cls-1" d="M646.29,624.55V571.2h15.48v5.33l.07,14.4.72,14.4v19.22Zm26.27-13.25a15.2,15.2,0,0,1-8.46-2.19,12.79,12.79,0,0,1-4.93-6.7,35.29,35.29,0,0,1-1.58-11.48,38.21,38.21,0,0,1,1.47-11.63,12.13,12.13,0,0,1,4.79-6.66,15.72,15.72,0,0,1,8.71-2.16,18.8,18.8,0,0,1,9.51,2.48A18.46,18.46,0,0,1,689,580a24.25,24.25,0,0,1,0,21.81,18.15,18.15,0,0,1-6.91,7A18.87,18.87,0,0,1,672.56,611.3Zm-3.88-12.67a6.23,6.23,0,0,0,3.24-.86,6.06,6.06,0,0,0,2.3-2.6,9.34,9.34,0,0,0,.86-4.24,9.55,9.55,0,0,0-.86-4.32,6.06,6.06,0,0,0-2.3-2.6,6.53,6.53,0,0,0-6.48,0,6.14,6.14,0,0,0-2.31,2.6,9.69,9.69,0,0,0-.86,4.32,9.48,9.48,0,0,0,.86,4.24,6.14,6.14,0,0,0,2.31,2.6A6.23,6.23,0,0,0,668.68,598.63Z" transform="translate(-452.75 -540)"/><path class="cls-1" d="M691.28,585.24V573.36H721v11.88Zm22.61,26.06q-8.13,0-12.67-3.92t-4.54-12.06v-33H713v32.83a3.87,3.87,0,0,0,1,2.81,3.22,3.22,0,0,0,2.41,1,6.35,6.35,0,0,0,3.67-1.08l3.89,11.3a14.52,14.52,0,0,1-4.5,1.59A29.71,29.71,0,0,1,713.89,611.3Z" transform="translate(-452.75 -540)"/><path class="cls-1" d="M734.34,568a10.29,10.29,0,0,1-7.13-2.38,7.87,7.87,0,0,1,0-11.8,10.29,10.29,0,0,1,7.13-2.38,10.74,10.74,0,0,1,7.13,2.23,7.19,7.19,0,0,1,2.66,5.76,8,8,0,0,1-2.66,6.16A10.21,10.21,0,0,1,734.34,568Zm-8.14,42.55V571.2h16.28v39.38Z" transform="translate(-452.75 -540)"/><path class="cls-1" d="M800,570.48a17.3,17.3,0,0,1,8,1.83,13.14,13.14,0,0,1,5.62,5.73,21.52,21.52,0,0,1,2.05,10.08v22.46H799.43V590.93q0-3.67-1.23-5.22a3.82,3.82,0,0,0-3.16-1.55,4.59,4.59,0,0,0-4.43,3,10.51,10.51,0,0,0-.69,4.21v19.22H773.65V590.93q0-3.67-1.15-5.22a3.79,3.79,0,0,0-3.24-1.55,4.76,4.76,0,0,0-2.59.72,4.89,4.89,0,0,0-1.84,2.27,10.53,10.53,0,0,0-.68,4.21v19.22H747.88V571.2h15.48v11.3l-3.17-3.17a15.52,15.52,0,0,1,6-6.66,16.25,16.25,0,0,1,8.36-2.19,16,16,0,0,1,9.18,2.7q4,2.7,5.36,8.53l-5-.79a17.45,17.45,0,0,1,6.3-7.67A16.84,16.84,0,0,1,800,570.48Z" transform="translate(-452.75 -540)"/><path class="cls-1" d="M837.37,611.3a18.53,18.53,0,0,1-8.46-1.91,13.6,13.6,0,0,1-5.94-6,22.28,22.28,0,0,1-2.16-10.48V571.2h16.27v18.93q0,4.18,1.37,5.83a4.58,4.58,0,0,0,3.74,1.66,5.25,5.25,0,0,0,2.71-.75,5.51,5.51,0,0,0,2.05-2.52,11.65,11.65,0,0,0,.79-4.65V571.2H864v39.38H848.53V599.21l3.1,3.09a14.48,14.48,0,0,1-5.94,6.81A16.56,16.56,0,0,1,837.37,611.3Z" transform="translate(-452.75 -540)"/><path class="cls-1" d="M921.54,570.48a17.36,17.36,0,0,1,8,1.83,13.17,13.17,0,0,1,5.61,5.73,21.52,21.52,0,0,1,2.05,10.08v22.46H921V590.93q0-3.67-1.22-5.22a3.84,3.84,0,0,0-3.17-1.55,4.79,4.79,0,0,0-2.59.72,4.89,4.89,0,0,0-1.84,2.27,10.71,10.71,0,0,0-.68,4.21v19.22H895.19V590.93c0-2.45-.39-4.19-1.15-5.22a3.8,3.8,0,0,0-3.25-1.55,4.58,4.58,0,0,0-4.42,3,10.51,10.51,0,0,0-.69,4.21v19.22H869.41V571.2h15.48v11.3l-3.17-3.17a15.54,15.54,0,0,1,6-6.66,16.22,16.22,0,0,1,8.35-2.19,16,16,0,0,1,9.18,2.7c2.67,1.8,4.45,4.64,5.37,8.53l-5-.79a17.45,17.45,0,0,1,6.3-7.67A16.84,16.84,0,0,1,921.54,570.48Z" transform="translate(-452.75 -540)"/><path class="cls-1" d="M962.79,610.58v-50.4h17v37.23h22.75v13.17Z" transform="translate(-452.75 -540)"/><path class="cls-1" d="M1013.05,568a10.29,10.29,0,0,1-7.13-2.38,7.87,7.87,0,0,1,0-11.8,10.29,10.29,0,0,1,7.13-2.38,10.75,10.75,0,0,1,7.13,2.23,7.19,7.19,0,0,1,2.66,5.76,8,8,0,0,1-2.66,6.16A10.23,10.23,0,0,1,1013.05,568Zm-8.14,42.55V571.2h16.27v39.38Z" transform="translate(-452.75 -540)"/><path class="cls-1" d="M1043.43,608.42a19.21,19.21,0,0,1-9.29-2.34,19,19,0,0,1,0-33.3,19.52,19.52,0,0,1,9.29-2.3,15.82,15.82,0,0,1,8.39,2,12,12,0,0,1,4.86,6.23,37,37,0,0,1,0,21.39,12.19,12.19,0,0,1-4.86,6.26A15.54,15.54,0,0,1,1043.43,608.42Zm3.17,16.85a46.59,46.59,0,0,1-10.94-1.23,27,27,0,0,1-8.79-3.67l5.47-11.08a17.55,17.55,0,0,0,5.87,2.84,24.21,24.21,0,0,0,6.73,1q5,0,7.2-2.12a8.16,8.16,0,0,0,2.16-6.09v-3.31l.72-12.24.08-12.24v-6h15.48v31.53q0,11.46-6.34,17T1046.6,625.27Zm1.15-29.52a7.32,7.32,0,0,0,3.46-.79,5.86,5.86,0,0,0,2.37-2.23,6.3,6.3,0,0,0,.87-3.32,6.2,6.2,0,0,0-.87-3.34,5.63,5.63,0,0,0-2.37-2.16,8.17,8.17,0,0,0-6.88,0,5.9,5.9,0,0,0-2.45,2.16,6,6,0,0,0-.9,3.34,6,6,0,0,0,3.35,5.55A7.36,7.36,0,0,0,1047.75,595.75Z" transform="translate(-452.75 -540)"/><path class="cls-1" d="M1103.34,570.48a18.1,18.1,0,0,1,8.2,1.83,13.41,13.41,0,0,1,5.8,5.73,21,21,0,0,1,2.12,10.08v22.46h-16.27V590.93q0-3.67-1.29-5.22a4.35,4.35,0,0,0-3.53-1.55,6.36,6.36,0,0,0-3.06.75,5.31,5.31,0,0,0-2.23,2.49,10.84,10.84,0,0,0-.83,4.68v18.5H1076V571.2h15.48v11.52l-3.1-3.31a15.78,15.78,0,0,1,6.23-6.7A17.34,17.34,0,0,1,1103.34,570.48Z" transform="translate(-452.75 -540)"/><path class="cls-1" d="M1141.14,611.3a18.53,18.53,0,0,1-8.46-1.91,13.6,13.6,0,0,1-5.94-6,22.28,22.28,0,0,1-2.16-10.48V571.2h16.27v18.93c0,2.79.45,4.73,1.37,5.83a4.58,4.58,0,0,0,3.74,1.66,5.19,5.19,0,0,0,2.7-.75,5.45,5.45,0,0,0,2-2.52,11.48,11.48,0,0,0,.79-4.65V571.2h16.28v39.38H1152.3V599.21l3.09,3.09a14.37,14.37,0,0,1-5.94,6.81A16.55,16.55,0,0,1,1141.14,611.3Z" transform="translate(-452.75 -540)"/><path class="cls-1" d="M1225.3,570.48a17.3,17.3,0,0,1,8,1.83A13.14,13.14,0,0,1,1239,578a21.52,21.52,0,0,1,2,10.08v22.46h-16.27V590.93q0-3.67-1.23-5.22a3.83,3.83,0,0,0-3.17-1.55,4.58,4.58,0,0,0-4.42,3,10.51,10.51,0,0,0-.69,4.21v19.22H1199V590.93q0-3.67-1.15-5.22a3.79,3.79,0,0,0-3.24-1.55,4.76,4.76,0,0,0-2.59.72,4.89,4.89,0,0,0-1.84,2.27,10.53,10.53,0,0,0-.68,4.21v19.22h-16.28V571.2h15.49v11.3l-3.17-3.17a15.52,15.52,0,0,1,6-6.66,16.25,16.25,0,0,1,8.36-2.19,16,16,0,0,1,9.18,2.7q4,2.7,5.36,8.53l-5-.79a17.45,17.45,0,0,1,6.3-7.67A16.86,16.86,0,0,1,1225.3,570.48Z" transform="translate(-452.75 -540)"/></svg>