<svg id="Layer_2" data-name="Layer 2" xmlns="http://www.w3.org/2000/svg" viewBox="0 0 563.77 162.78"><defs><style>.cls-1{fill:#fa935a;}.cls-2{fill:#141945;}.cls-3{fill:#131945;}</style></defs><title>optimumlignum_logo-wood</title><rect class="cls-1" width="162.78" height="162.78" rx="26.01"/><path class="cls-2" d="M945.16,475.34a28.8,28.8,0,0,1,14.32,3.37,22.68,22.68,0,0,1,9.26,9.66,37.33,37.33,0,0,1,0,30.38,22.65,22.65,0,0,1-9.26,9.67,32.28,32.28,0,0,1-28.68,0,22.54,22.54,0,0,1-9.29-9.67,37.23,37.23,0,0,1,0-30.38,22.57,22.57,0,0,1,9.29-9.66A29.07,29.07,0,0,1,945.16,475.34Zm0,11.21a11.5,11.5,0,0,0-6.72,1.91,11.62,11.62,0,0,0-4.15,5.68,32,32,0,0,0,0,18.8,10.74,10.74,0,0,0,10.87,7.64,11.32,11.32,0,0,0,6.69-1.91,11.75,11.75,0,0,0,4.1-5.73,32,32,0,0,0,0-18.8,11.79,11.79,0,0,0-4.1-5.68A11.32,11.32,0,0,0,945.16,486.55Z" transform="translate(-716.71 -458.61)"/><path class="cls-2" d="M978.94,548.38V489.45h12.7l.75,15-1.66-1.75a18.4,18.4,0,0,1,2.57-7.3,14.87,14.87,0,0,1,5.15-5,14.12,14.12,0,0,1,7.22-1.83,15.81,15.81,0,0,1,9,2.54,16.45,16.45,0,0,1,5.94,7.3,28.48,28.48,0,0,1,2.12,11.58,28.82,28.82,0,0,1-2.16,11.7,16.83,16.83,0,0,1-6,7.47,15.83,15.83,0,0,1-9,2.57,12.58,12.58,0,0,1-9.12-3.36,16.48,16.48,0,0,1-4.65-8.51l1.32-2v30.46Zm21.75-27a6.83,6.83,0,0,0,5.73-2.7c1.38-1.8,2.07-4.63,2.07-8.51s-.68-6.7-2-8.5a6.72,6.72,0,0,0-5.69-2.7,6.62,6.62,0,0,0-4.06,1.29,8,8,0,0,0-2.7,3.77,17.17,17.17,0,0,0-1,6.14,18.29,18.29,0,0,0,.88,6,7.9,7.9,0,0,0,2.61,3.86A6.61,6.61,0,0,0,1000.69,521.41Z" transform="translate(-716.71 -458.61)"/><path class="cls-2" d="M1058.71,489.45V499.5h-33.62V489.45Zm-12.37-13.19v39.92c0,2,.48,3.42,1.45,4.27a5.86,5.86,0,0,0,4,1.29,11.33,11.33,0,0,0,3.44-.46,8.1,8.1,0,0,0,2.62-1.37l1.49,8.72a15.5,15.5,0,0,1-5.23,2.32,25,25,0,0,1-6.47.83,22.89,22.89,0,0,1-8.18-1.32,10.75,10.75,0,0,1-5.31-4.24,14.66,14.66,0,0,1-2-7.72V480.16Z" transform="translate(-716.71 -458.61)"/><path class="cls-2" d="M1070.66,484.64q-4.32,0-6.27-1.62t-2-5.1q0-3.57,2-5.19t6.27-1.62c2.82,0,4.9.54,6.22,1.62s2,2.81,2,5.19-.67,4-2,5.1S1073.48,484.64,1070.66,484.64Zm7,4.81V531H1063.6v-41.5Z" transform="translate(-716.71 -458.61)"/><path class="cls-2" d="M1086.1,531v-41.5h12.61l.42,8.05a14.7,14.7,0,0,1,5.6-6.64,15.54,15.54,0,0,1,8.34-2.24,15.19,15.19,0,0,1,8,2.08,12.46,12.46,0,0,1,5.07,6.14,13.8,13.8,0,0,1,3.44-4.56,14.2,14.2,0,0,1,4.86-2.74,17.63,17.63,0,0,1,5.64-.92,15.74,15.74,0,0,1,7.3,1.62,12,12,0,0,1,5,4.9,16.38,16.38,0,0,1,1.86,8.17V531h-14.11v-24.4c0-2.65-.51-4.51-1.53-5.56a5.5,5.5,0,0,0-4.11-1.58,7.14,7.14,0,0,0-3.78,1,6.68,6.68,0,0,0-2.61,3.11,13,13,0,0,0-.92,5.23V531h-14.11v-24.4c0-2.65-.52-4.51-1.57-5.56a5.52,5.52,0,0,0-4.07-1.58,7.07,7.07,0,0,0-3.61,1,6.88,6.88,0,0,0-2.7,3.11,13.11,13.11,0,0,0-1,5.52V531Z" transform="translate(-716.71 -458.61)"/><path class="cls-2" d="M1176.57,531.78a17.75,17.75,0,0,1-7.43-1.45,10.78,10.78,0,0,1-5-4.69,17.12,17.12,0,0,1-1.83-8.46V489.45h14.11v24.41c0,2.65.53,4.51,1.58,5.56a6.05,6.05,0,0,0,4.48,1.57,7.37,7.37,0,0,0,2.82-.54,6.21,6.21,0,0,0,2.33-1.66,7.6,7.6,0,0,0,1.53-2.9,14.55,14.55,0,0,0,.54-4.19V489.45h14.11V531h-12.62l-.41-7.8a14,14,0,0,1-5.56,6.52A16.65,16.65,0,0,1,1176.57,531.78Z" transform="translate(-716.71 -458.61)"/><path class="cls-2" d="M1212.25,531v-41.5h12.62l.42,8.05a14.64,14.64,0,0,1,5.6-6.64,15.51,15.51,0,0,1,8.34-2.24,15.19,15.19,0,0,1,8,2.08,12.39,12.39,0,0,1,5.06,6.14,14,14,0,0,1,3.45-4.56,14.25,14.25,0,0,1,4.85-2.74,17.74,17.74,0,0,1,5.65-.92,15.77,15.77,0,0,1,7.3,1.62,12,12,0,0,1,5,4.9,16.27,16.27,0,0,1,1.87,8.17V531h-14.11v-24.4c0-2.65-.51-4.51-1.53-5.56a5.5,5.5,0,0,0-4.11-1.58,7.11,7.11,0,0,0-3.78,1,6.62,6.62,0,0,0-2.61,3.11,13,13,0,0,0-.92,5.23V531h-14.11v-24.4c0-2.65-.52-4.51-1.57-5.56a5.53,5.53,0,0,0-4.07-1.58,7.07,7.07,0,0,0-3.61,1,6.82,6.82,0,0,0-2.7,3.11,13.11,13.11,0,0,0-1,5.52V531Z" transform="translate(-716.71 -458.61)"/><path class="cls-2" d="M934.87,587.91h27.47v11H920.6V544.17h14.27Z" transform="translate(-716.71 -458.61)"/><path class="cls-2" d="M975,552.64q-4.32,0-6.27-1.62t-2-5.1q0-3.57,2-5.19t6.27-1.62c2.82,0,4.9.54,6.22,1.62s2,2.81,2,5.19-.67,4-2,5.1S977.78,552.64,975,552.64Zm7,4.81V599H967.9v-41.5Z" transform="translate(-716.71 -458.61)"/><path class="cls-2" d="M1016.29,589.74q7.23,0,11.08,3t3.86,8.67a13,13,0,0,1-2.82,8.55,17,17,0,0,1-7.93,5.11,38.37,38.37,0,0,1-12.07,1.7q-11.29,0-16.27-2.82t-5-7.64A6.76,6.76,0,0,1,990,600.7q2.82-2.16,9.38-2.33L999,599.7c-3.38-.44-5.89-1.44-7.55-3A8.21,8.21,0,0,1,989,590.4a7.87,7.87,0,0,1,3.15-6.47,14.32,14.32,0,0,1,8.38-2.74l5.15,2.41h-1.33a9.22,9.22,0,0,0-4.56,1.08,2.65,2.65,0,0,0-1.33,2.24,2.31,2.31,0,0,0,1.16,2.12,6.86,6.86,0,0,0,3.49.7Zm-7.3-33.12a31.34,31.34,0,0,1,10.79,1.66,14.77,14.77,0,0,1,6.85,4.78,13.6,13.6,0,0,1,0,15.31,14.41,14.41,0,0,1-6.85,4.77,31.88,31.88,0,0,1-10.79,1.62q-9.88,0-15-3.65a12,12,0,0,1-5.11-10.38,12.28,12.28,0,0,1,2.37-7.67,14.77,14.77,0,0,1,6.85-4.78A31.54,31.54,0,0,1,1009,556.62Zm-.5,51a33.44,33.44,0,0,0,6.6-.54,10.38,10.38,0,0,0,3.94-1.5,2.68,2.68,0,0,0,1.33-2.19,2.33,2.33,0,0,0-.91-2,5.61,5.61,0,0,0-3.32-.71h-14.86a3.72,3.72,0,0,0-2.53.83,2.62,2.62,0,0,0-1,2.07c0,1.28.94,2.26,2.83,3A23.72,23.72,0,0,0,1008.49,607.67Zm.5-43a6.26,6.26,0,0,0-4.44,1.58,5.79,5.79,0,0,0-1.7,4.48,5.67,5.67,0,0,0,1.7,4.4,7,7,0,0,0,8.84,0,5.62,5.62,0,0,0,1.74-4.4,5.74,5.74,0,0,0-1.74-4.48A6.32,6.32,0,0,0,1009,564.67Zm21.58-18.34,1.16,9.46a3.86,3.86,0,0,0-1-.2c-.33,0-.66-.05-1-.05q-3.66,0-5.44,1.79a6,6,0,0,0-1.78,4.44l-5-1.83a17.65,17.65,0,0,1,1.24-6.55,11.77,11.77,0,0,1,3.86-5.15,10.55,10.55,0,0,1,6.6-2h.62A3.22,3.22,0,0,1,1030.57,546.33Z" transform="translate(-716.71 -458.61)"/><path class="cls-2" d="M1035.22,599v-41.5h12.61l.75,14.28-1.58-1.58a18.58,18.58,0,0,1,3-7.47,13.67,13.67,0,0,1,5.31-4.52,16.44,16.44,0,0,1,7.18-1.54,16.15,16.15,0,0,1,7.51,1.66,12,12,0,0,1,5,4.9,16.35,16.35,0,0,1,1.83,8.13V599h-14.11v-23.9q0-4.32-1.66-6a5.77,5.77,0,0,0-4.23-1.66,7.63,7.63,0,0,0-3.74,1,6.52,6.52,0,0,0-2.74,3,13,13,0,0,0-1,5.56v22Z" transform="translate(-716.71 -458.61)"/><path class="cls-2" d="M1099,599.78a17.7,17.7,0,0,1-7.42-1.45,10.8,10.8,0,0,1-5-4.69,17.23,17.23,0,0,1-1.82-8.46V557.45h14.11v24.41c0,2.65.52,4.51,1.57,5.56a6.08,6.08,0,0,0,4.49,1.57,7.45,7.45,0,0,0,2.82-.54,6.18,6.18,0,0,0,2.32-1.66,7.48,7.48,0,0,0,1.54-2.9,14.55,14.55,0,0,0,.54-4.19V557.45h14.11V599h-12.62l-.41-7.8a14.08,14.08,0,0,1-5.56,6.52A16.69,16.69,0,0,1,1099,599.78Z" transform="translate(-716.71 -458.61)"/><path class="cls-2" d="M1134.73,599v-41.5h12.62l.41,8a14.72,14.72,0,0,1,5.61-6.64,15.49,15.49,0,0,1,8.34-2.24,15.19,15.19,0,0,1,8,2.08,12.44,12.44,0,0,1,5.06,6.14,14,14,0,0,1,3.45-4.56,14.16,14.16,0,0,1,4.85-2.74,17.74,17.74,0,0,1,5.65-.92,15.77,15.77,0,0,1,7.3,1.62,12,12,0,0,1,5,4.9,16.27,16.27,0,0,1,1.87,8.17V599h-14.11v-24.4c0-2.65-.51-4.51-1.54-5.56a5.46,5.46,0,0,0-4.1-1.58,7.11,7.11,0,0,0-3.78,1,6.64,6.64,0,0,0-2.62,3.11,13,13,0,0,0-.91,5.23V599h-14.11v-24.4c0-2.65-.53-4.51-1.58-5.56a5.49,5.49,0,0,0-4.06-1.58,7,7,0,0,0-3.61,1,6.77,6.77,0,0,0-2.7,3.11,12.94,12.94,0,0,0-1,5.52V599Z" transform="translate(-716.71 -458.61)"/><polygon class="cls-3" points="142.72 49.69 142.72 112.74 81.3 148.2 47.17 128.5 47.17 65.45 81.3 45.75 115.42 65.45 115.42 96.97 81.3 116.68 74.47 112.74 74.47 81.21 81.3 77.27 88.12 81.21 88.12 96.97 101.77 89.09 101.77 73.33 81.3 61.51 60.82 73.33 60.82 120.62 81.3 132.44 129.07 104.86 129.07 57.57 81.3 29.99 33.52 57.57 33.52 120.62 19.87 112.74 19.87 49.69 81.3 14.23 142.72 49.69"/></svg>